<svg width="41" height="20" viewBox="0 0 41 20" fill="none" xmlns="http://www.w3.org/2000/svg">
<path d="M13.6316 1.66797C15.145 1.66797 16.2081 1.85786 16.8211 2.23763C17.434 2.60981 17.9372 3.10352 18.3306 3.71875C18.7317 4.32639 18.9171 5.24544 18.8868 6.47591C18.9171 8.27604 18.5198 9.48372 17.695 10.099C18.5501 10.7066 18.9625 11.8687 18.9322 13.5853C18.9625 14.6031 18.8111 15.4272 18.4782 16.0576C18.1452 16.688 17.6269 17.1704 16.9232 17.5046C16.2195 17.8388 15.1147 18.021 13.6089 18.0514L0.0567512 18.0059C0.0189171 18.0059 0 17.9869 0 17.9489V1.72493C0.00756682 1.68696 0.0264839 1.66797 0.0567512 1.66797H13.6316ZM3.20077 14.793H13.7905C15.0391 14.793 15.6633 14.2423 15.6633 13.141C15.6633 12.0396 15.0277 11.4737 13.7565 11.4434H3.22347C3.18563 11.4434 3.16672 11.4244 3.16672 11.3864V8.28743C3.17428 8.24946 3.1932 8.23047 3.22347 8.23047H13.8246C15.0126 8.23047 15.6066 7.676 15.6066 6.56706C15.6141 5.45812 15.0201 4.89605 13.8246 4.88086H3.20077V14.793Z" fill="white"/>
<path d="M33.0665 1.66797C35.1322 1.66797 37.0466 2.53765 38.8097 4.27702C40.2247 5.97081 40.9322 7.71398 40.9322 9.50651V10.2471C40.9322 11.8801 40.2814 13.5283 38.98 15.1917C38.2308 15.9741 37.5725 16.5323 37.005 16.8665C35.6354 17.6261 34.3226 18.0059 33.0665 18.0059H22.0568C22.0189 18.0059 22 17.9869 22 17.9489V4.57324C22.0076 4.53526 22.0265 4.51628 22.0568 4.51628H25.144C25.1818 4.52387 25.2008 4.54286 25.2008 4.57324V14.793H32.987C34.5307 14.793 35.8511 14.0562 36.9483 12.5827C37.4931 11.7016 37.7655 10.7826 37.7655 9.82552C37.7655 8.09375 36.9747 6.68099 35.3933 5.58724C34.5685 5.11632 33.7664 4.88086 32.987 4.88086H22.0568C22.0189 4.88086 22 4.86187 22 4.82389V1.72493C22.0076 1.68696 22.0265 1.66797 22.0568 1.66797H33.0665Z" fill="#FFCC00"/>
</svg>
