<svg width="106" height="146" viewBox="0 0 106 146" fill="none" xmlns="http://www.w3.org/2000/svg">
<g clip-path="url(#clip0_3437_136938)">
<g style="mix-blend-mode:color-burn">
<path d="M8.33111 145.61L53.2009 72.8091L-8.65585 145.61H8.33111ZM35.5264 145.61L53.2009 72.8091L23.2635 145.61H35.5264ZM-19.6003 134.666L53.2009 72.8091L-19.6003 117.679V134.666ZM-19.6003 102.747L53.2009 72.8091L-19.6003 90.4836V102.747ZM126.002 90.4836L53.2009 72.8091L126.002 102.747V90.4836ZM58.7419 145.61L53.2009 72.8091L47.66 145.61H58.75H58.7419ZM-19.6003 78.35L53.2009 72.8091L-19.6003 67.2681V78.35ZM126.002 117.679L53.2009 72.8091L126.002 134.666V117.679ZM115.058 145.61L53.2009 72.8091L98.0708 145.61H115.058ZM83.1384 145.61L53.2009 72.8091L70.8755 145.61H83.1384ZM126.002 10.9523L53.2009 72.8091L126.002 27.9392V10.9523ZM98.0708 0.0078125L53.2009 72.8091L115.058 0.0078125H98.0708ZM126.002 67.2681L53.2009 72.8091L126.002 78.35V67.2681ZM70.8755 0.0078125L53.2009 72.8091L83.1384 0.0078125H70.8755ZM126.002 42.8716L53.2009 72.8091L126.002 55.1345V42.8716ZM23.2635 0.0078125L53.2009 72.8091L35.5264 0.0078125H23.2635ZM-8.65585 0.0078125L53.2009 72.8091L8.33111 0.0078125H-8.65585ZM47.66 0.0078125L53.2009 72.8091L58.7419 0.0078125H47.6519H47.66ZM-19.6003 27.9392L53.2009 72.8091L-19.6003 10.9523V27.9392ZM-19.6003 55.1345L53.2009 72.8091L-19.6003 42.8716V55.1345Z" fill="url(#paint0_radial_3437_136938)"/>
</g>
</g>
<defs>
<radialGradient id="paint0_radial_3437_136938" cx="0" cy="0" r="1" gradientUnits="userSpaceOnUse" gradientTransform="translate(53.2009 72.8091) rotate(90) scale(72.8012)">
<stop stop-color="#D9D9D9" stop-opacity="0"/>
<stop offset="1" stop-color="#D9D9D9"/>
</radialGradient>
<clipPath id="clip0_3437_136938">
<rect width="145.602" height="145.602" fill="white" transform="translate(-19.6003)"/>
</clipPath>
</defs>
</svg>
